<?xml version="1.0" standalone="no"?>
<!DOCTYPE svg PUBLIC "-//W3C//DTD SVG 20010904//EN"
 "http://www.w3.org/TR/2001/REC-SVG-20010904/DTD/svg10.dtd">
<svg version="1.0" xmlns="http://www.w3.org/2000/svg"
 width="600.000000pt" height="600.000000pt" viewBox="0 0 600.000000 600.000000"
 preserveAspectRatio="xMidYMid meet">

<g transform="translate(0.000000,600.000000) scale(0.100000,-0.100000)"
fill="#cebebe60" stroke="none">
<path d="M1890 4573 c-106 -8 -355 -36 -475 -53 -113 -17 -131 -17 -138 -5
-12 22 -86 19 -111 -4 -29 -26 -168 -35 -190 -12 -21 20 -80 19 -104 -2 -10
-10 -35 -17 -56 -17 -55 0 -166 -28 -210 -53 -22 -12 -48 -36 -58 -54 -19 -31
-19 -33 10 -185 l30 -153 -39 -64 c-21 -35 -46 -84 -55 -110 -9 -25 -45 -109
-79 -186 -35 -77 -70 -162 -80 -190 -18 -56 -35 -222 -35 -362 0 -93 5 -108
46 -131 9 -5 22 -40 30 -82 31 -146 88 -251 157 -287 45 -23 207 -23 262 1 21
9 47 24 56 32 16 14 52 -3 436 -204 230 -121 428 -222 440 -226 30 -10 61 -50
73 -97 7 -27 17 -39 32 -41 14 -2 25 -14 31 -33 65 -208 178 -357 320 -424 96
-45 187 -61 345 -61 119 0 148 -3 208 -24 551 -187 1396 -132 2244 147 439
145 692 281 802 431 27 38 28 43 28 161 0 130 -9 171 -47 223 -13 17 -21 37
-18 42 3 5 6 67 6 137 1 200 -36 319 -125 406 -23 23 -55 65 -71 92 -15 28
-62 83 -104 124 -228 221 -434 318 -1001 475 -129 35 -271 77 -315 93 -86 30
-83 26 -69 100 8 42 -16 80 -64 100 -30 12 -46 13 -94 3 -32 -6 -64 -8 -71 -3
-6 4 -61 44 -122 89 -162 120 -279 194 -412 262 -218 110 -277 124 -608 142
-173 9 -697 11 -805 3z m560 -82 c0 -5 3 -18 6 -28 5 -14 2 -14 -13 4 -15 19
-30 23 -103 26 l-85 3 98 2 c54 1 97 -2 97 -7z m290 -6 c117 -6 303 -29 342
-44 13 -5 -46 -10 -148 -14 -308 -12 -644 -51 -931 -108 l-153 -31 -57 45
c-75 58 -132 86 -207 101 l-61 13 60 6 c33 4 128 12 210 18 l150 11 115 -39
115 -38 110 8 c61 4 129 10 152 13 40 5 42 6 33 30 -17 43 -14 44 73 39 45 -2
134 -7 197 -10z m-580 -34 l0 -30 -72 25 c-39 13 -74 26 -76 29 -3 3 29 5 71
5 l77 0 0 -29z m-1223 -29 c7 -4 -27 -13 -77 -20 -92 -12 -194 -44 -219 -68
-12 -11 -11 -12 6 -8 17 5 23 -4 41 -53 11 -32 22 -63 24 -69 2 -6 -13 -48
-32 -93 -26 -63 -36 -78 -42 -64 -15 38 -58 281 -52 296 17 44 140 85 259 86
44 0 85 -3 92 -7z m383 -22 c84 -8 84 -8 -130 -20 -167 -9 -237 -26 -315 -77
l-40 -26 24 27 c33 36 113 73 192 90 69 16 152 17 269 6z m258 -25 c67 -31
160 -119 218 -207 25 -37 85 -153 134 -258 110 -237 131 -274 181 -309 61 -45
124 -56 299 -54 290 3 1056 116 1360 200 148 41 190 66 190 115 l0 28 40 -29
c47 -34 146 -66 380 -121 320 -76 583 -175 737 -277 85 -56 186 -161 215 -223
48 -100 53 -90 -83 -149 -169 -73 -224 -91 -284 -91 -58 0 -122 -19 -163 -49
-46 -32 -422 -97 -627 -107 l-120 -7 -135 48 c-382 135 -1361 458 -1540 509
-232 65 -347 114 -415 177 -59 55 -84 104 -129 259 -47 161 -90 279 -128 357
-35 72 -126 164 -190 193 -35 16 -39 20 -18 20 14 0 49 -11 78 -25z m1780 -67
c279 -176 537 -376 556 -431 17 -48 -10 -63 -179 -96 -462 -92 -962 -160
-1301 -176 -251 -13 -296 14 -405 240 -37 77 -97 195 -133 262 -57 105 -64
122 -48 127 32 10 316 55 502 80 244 33 648 70 806 74 l71 2 131 -82z m-2051
15 c-50 -179 -119 -436 -124 -465 -3 -21 -8 -38 -12 -38 -3 0 -74 30 -158 66
l-151 66 19 69 c28 100 66 199 95 242 40 60 87 77 223 77 103 0 113 -2 108
-17z m165 -1 c68 -24 129 -72 165 -126 31 -47 179 -466 164 -466 -4 0 -29 23
-56 50 -45 46 -53 50 -95 50 -61 -1 -125 -31 -144 -69 -21 -39 -20 -54 3 -75
32 -29 88 -37 169 -24 70 12 76 11 117 -11 36 -19 47 -32 59 -69 9 -25 16 -48
16 -50 0 -14 -128 9 -168 31 -168 88 -232 119 -324 157 -56 24 -107 47 -112
51 -14 12 66 469 94 545 11 29 43 31 112 6z m-579 -144 c-19 -46 -44 -107 -55
-135 -11 -29 -24 -53 -29 -53 -6 0 -24 7 -41 16 -29 15 -30 17 -24 67 14 107
79 187 152 187 l32 0 -35 -82z m503 -514 c395 -163 728 -299 739 -304 14 -5 1
-10 -50 -19 -72 -12 -166 -50 -197 -78 -16 -14 -70 8 -675 268 -362 155 -660
284 -662 285 -18 14 82 144 111 144 8 0 338 -133 734 -296z m352 48 l32 -27
-116 -3 c-126 -3 -137 4 -60 39 59 27 104 24 144 -9z m-1098 -30 c98 -48 190
-134 230 -216 23 -46 32 -85 40 -161 21 -190 65 -314 154 -432 97 -128 225
-217 519 -364 194 -97 207 -105 207 -131 0 -16 -3 -28 -7 -28 -5 1 -235 112
-513 249 l-505 247 -6 200 c-6 211 -21 305 -65 422 -34 91 -81 169 -132 220
-51 51 -39 50 78 -6z m963 -387 l249 -102 49 33 c72 48 154 76 241 82 93 6
157 -8 264 -58 149 -69 255 -151 499 -390 241 -235 335 -304 490 -356 69 -23
99 -27 215 -30 l135 -2 -120 7 c-66 5 -149 16 -185 25 -168 45 -297 140 -359
268 -51 102 -51 102 137 95 86 -4 240 -16 342 -27 459 -49 619 -49 1014 1
l168 21 47 48 c57 59 104 75 176 59 50 -11 52 -10 180 46 181 80 223 102 235
124 5 11 10 52 10 93 l0 72 53 -52 c29 -28 63 -73 77 -99 14 -26 43 -67 66
-90 50 -50 74 -99 74 -147 0 -28 -8 -43 -42 -76 -154 -149 -494 -302 -819
-370 -117 -24 -500 -74 -696 -91 -175 -14 -486 -7 -603 15 -145 27 -261 65
-385 126 -141 69 -216 120 -386 267 -206 177 -403 306 -518 340 -179 52 -321
-74 -377 -334 l-19 -88 -5 99 -5 99 -208 122 c-114 67 -211 125 -214 129 -5 5
178 -69 341 -138 21 -9 41 -16 44 -16 4 0 -102 64 -235 142 -133 78 -241 143
-239 145 2 2 97 -36 212 -83 115 -47 216 -88 224 -91 8 -3 -136 83 -320 192
-184 109 -339 202 -345 206 -5 5 58 -18 140 -52 83 -34 262 -108 398 -164z
m-1067 30 c18 -14 18 -14 -3 -8 -33 8 -72 -22 -93 -70 -71 -160 12 -517 119
-517 15 0 32 5 39 12 9 9 12 9 12 0 0 -7 -15 -19 -33 -28 -31 -15 -36 -15 -65
0 -37 19 -74 79 -97 156 -22 75 -35 255 -23 321 22 121 84 179 144 134z m34
-40 c10 -13 8 -20 -13 -41 -74 -74 -53 -338 34 -425 l38 -38 -26 -21 c-32 -25
-44 -25 -77 1 -105 83 -137 424 -49 521 20 22 76 24 93 3z m70 -82 c-1 -24 -2
-26 -11 -10 -5 9 -7 22 -4 27 10 17 15 11 15 -17z m-50 -25 c-1 -31 -2 -32
-15 -15 -7 11 -11 25 -8 33 10 25 23 15 23 -18z m-30 -88 c9 -17 8 -20 -10
-20 -13 0 -20 7 -20 20 0 11 4 20 10 20 5 0 14 -9 20 -20z m74 -6 c26 -10 18
-114 -9 -114 -41 0 -63 88 -27 109 21 13 17 12 36 5z m1562 -19 c161 -48 361
-261 451 -481 63 -155 111 -389 129 -626 7 -87 6 -88 -16 -88 -82 0 -153 -51
-180 -130 l-19 -55 0 60 c0 33 6 78 14 100 9 24 11 43 5 50 -5 6 -7 28 -3 48
4 29 -1 46 -26 88 -18 28 -30 53 -28 55 2 3 17 0 32 -6 15 -6 29 -9 31 -8 1 2
0 23 -3 47 -5 36 -11 45 -34 53 -36 12 -36 23 -3 45 23 15 25 21 20 57 -4 22
-8 42 -10 43 -2 2 -20 -4 -41 -13 l-37 -15 6 48 c14 107 18 123 27 117 13 -8
11 5 -11 64 -119 313 -322 498 -466 424 -63 -33 -119 -102 -159 -200 -28 -66
-31 -54 -9 38 23 97 77 202 126 244 65 56 119 67 204 41z m-1642 -51 c13 -5
14 -9 5 -20 -13 -16 -29 -9 -29 12 0 16 2 16 24 8z m36 -126 c0 -21 -3 -29
-10 -22 -5 5 -7 19 -4 32 9 31 14 27 14 -10z m1785 -279 c5 -5 -4 -9 -25 -9
-80 -1 -169 -72 -214 -170 -100 -221 -5 -523 199 -628 40 -21 64 -26 123 -26
39 0 72 -4 72 -9 0 -4 -21 -18 -47 -29 -231 -104 -503 157 -503 482 0 204 100
361 255 401 36 9 126 2 140 -12z m3090 12 c-6 -5 -53 -32 -105 -60 -307 -162
-725 -273 -1220 -322 -175 -18 -624 -18 -720 0 -104 19 -222 57 -305 98 -86
43 -201 122 -241 164 -18 20 -4 12 36 -20 86 -68 261 -154 385 -188 l100 -28
335 0 c358 1 482 10 785 61 342 57 652 151 870 262 84 43 95 48 80 33z m-3047
-73 c17 -11 32 -23 32 -27 0 -23 -59 -164 -64 -151 -44 122 -66 186 -66 198 0
18 53 7 98 -20z m-123 -191 c7 -28 6 -27 -63 23 -71 52 -71 52 -57 80 8 15 29
40 47 55 l33 28 16 -79 c9 -44 20 -92 24 -107z m3290 97 c-5 -30 -15 -37 -123
-92 -139 -71 -317 -144 -542 -223 -91 -32 -160 -58 -153 -58 23 -1 280 69 393
107 130 44 264 99 351 142 32 17 60 30 61 30 2 0 1 -23 -2 -52 l-5 -52 -80
-43 c-171 -91 -439 -193 -692 -263 -147 -40 -517 -120 -560 -120 -20 0 -27 15
-66 138 -24 75 -43 138 -41 140 1 2 60 12 131 22 324 48 628 118 876 201 153
51 342 135 413 183 l39 26 3 -26 c2 -15 1 -42 -3 -60z m159 -72 c10 -17 -33
-89 -77 -129 -244 -225 -976 -461 -1697 -549 -181 -22 -641 -30 -797 -14 -250
25 -521 95 -490 126 3 3 47 -8 99 -24 469 -150 1296 -104 2055 113 283 82 579
204 722 299 78 52 147 123 157 160 6 26 18 33 28 18z m-3536 -102 l52 -59 -37
-6 c-21 -3 -50 -8 -65 -10 -26 -4 -28 -2 -28 34 0 47 10 101 19 101 4 0 30
-27 59 -60z m697 -29 c81 -46 125 -78 136 -97 12 -21 18 -67 23 -165 l6 -137
-59 18 c-32 10 -90 22 -129 26 l-72 7 0 66 c0 60 -19 228 -36 315 -3 20 -2 36
2 36 5 0 63 -31 129 -69z m-451 10 c36 -36 47 -108 22 -146 -25 -37 -60 -48
-101 -31 -42 18 -65 61 -65 120 0 37 5 48 32 71 38 32 69 28 112 -14z m3286
-19 c0 -42 -109 -139 -246 -221 -430 -253 -1468 -471 -2134 -448 -194 7 -296
18 -445 48 -120 24 -317 89 -323 107 -6 18 14 15 83 -13 81 -32 233 -70 370
-92 139 -23 667 -25 840 -5 693 83 1324 256 1629 446 85 53 174 131 195 170
17 30 31 34 31 8z m-3460 -133 c0 -19 -62 -119 -71 -113 -12 7 -59 100 -59
116 0 10 17 12 65 10 36 -2 65 -8 65 -13z m1060 -25 c52 -9 205 -17 390 -21
315 -7 326 -12 76 -33 -214 -18 -457 9 -576 64 -34 15 -34 16 -5 10 17 -3 68
-13 115 -20z m-974 -149 c8 -48 14 -91 12 -96 -4 -12 -108 60 -108 74 0 13 72
118 77 113 2 -2 10 -43 19 -91z m138 5 c46 -58 47 -60 36 -100 -9 -35 -14 -40
-40 -40 -23 0 -31 5 -34 23 -7 34 -17 177 -13 177 2 0 25 -27 51 -60z m801
-32 c78 -14 437 -17 605 -6 121 8 109 -2 -30 -26 -196 -34 -410 -31 -562 9
-54 14 -145 50 -103 40 11 -2 52 -10 90 -17z"/>
<path d="M4330 3418 c-466 -27 -1244 -31 -1438 -5 -74 9 -139 17 -145 17 -7
-1 96 -34 228 -75 412 -126 739 -247 924 -339 l91 -46 117 0 c205 0 478 36
705 91 172 42 408 133 408 158 0 18 -144 163 -189 189 -44 26 -51 27 -206 29
-88 1 -311 -8 -495 -19z"/>
<path d="M5417 3172 c-6 -96 2 -250 13 -257 4 -3 35 24 69 59 l61 64 -20 47
c-21 50 -82 146 -104 164 -11 9 -14 -6 -19 -77z"/>
<path d="M5360 3055 c-36 -39 -133 -106 -219 -153 -55 -30 -79 -50 -90 -74 -9
-18 -31 -43 -50 -55 -46 -31 -141 -32 -190 -2 -33 20 -35 20 -205 4 -94 -8
-232 -16 -308 -17 l-136 -2 119 -89 120 -90 207 6 c355 9 565 73 715 217 l68
65 -3 108 -3 109 -25 -27z"/>
<path d="M3170 2811 c0 -58 96 -170 182 -214 136 -69 374 -91 558 -52 69 14
112 17 230 12 l145 -6 -50 45 c-27 25 -80 71 -116 103 l-66 58 -154 6 c-152 7
-437 33 -472 43 -11 3 -72 9 -138 12 -100 6 -119 5 -119 -7z"/>
</g>
</svg>
